PathFileType	4	(X/Y/Z)	TVC_9_BWA1_walk_RCNL2025.trc
DataRate	CameraRate	NumFrames	NumMarkers	Units	OrigDataRate	OrigDataStartFrame	OrigNumFrames
100	100	6	27	mm	100	1	397
Frame#	Time	R_Shoulder			L_Shoulder			C7			J_Notch			R_Elbow			L_Elbow			R_Wrist			L_Wrist			R_Asis			L_Asis			R_Psis			L_Psis			Sacral			Thoracic			Sternum			R_Thigh_Lateral			R_Knee_Lateral			R_Shank_Lateral			R_Ankle_Lateral			R_Heel			R_Toe			L_Thigh_Lateral			L_Knee_Lateral			L_Shank_Lateral			L_Ankle_Lateral			L_Heel			L_Toe		
		X1	Y1	Z1	X2	Y2	Z2	X3	Y3	Z3	X4	Y4	Z4	X5	Y5	Z5	X6	Y6	Z6	X7	Y7	Z7	X8	Y8	Z8	X9	Y9	Z9	X10	Y10	Z10	X11	Y11	Z11	X12	Y12	Z12	X13	Y13	Z13	X14	Y14	Z14	X15	Y15	Z15	X16	Y16	Z16	X17	Y17	Z17	X18	Y18	Z18	X19	Y19	Z19	X20	Y20	Z20	X21	Y21	Z21	X22	Y22	Z22	X23	Y23	Z23	X24	Y24	Z24	X25	Y25	Z25	X26	Y26	Z26	X27	Y27	Z27
1	0.00000000	-1463.167114	1355.709473	-46.966343	-1513.313354	1388.532593	-434.956696	-1545.761841	1442.166260	-237.205994	-1390.321411	1340.567627	-243.641602	-1508.923706	1022.430115	27.083418	-1505.241577	1062.091797	-551.343445	-1427.464783	788.536011	-20.781557	-1393.280762	841.818573	-545.596405	-1426.817017	930.680603	-109.231171	-1466.929443	940.206604	-413.393066	-1633.401611	952.328796	-186.224258	-1644.392212	948.912476	-284.191620	-1638.896912	950.620636	-235.207939	-1638.044556	1163.307983	-235.785416	-1327.899292	1153.237793	-256.618256	-1426.470825	534.374939	-53.806885	-1422.531494	454.912292	-126.418358	-1418.607666	292.740936	-91.616531	-1437.774536	73.101891	-174.215057	-1495.239380	59.367622	-238.772018	-1312.052979	51.730545	-207.592285	-1396.296631	584.679504	-468.179504	-1417.518433	457.996460	-415.602386	-1515.935303	355.867706	-455.046478	-1676.530151	208.184845	-367.912720	-1725.329102	221.976395	-304.329132	-1594.206055	86.029427	-351.632416
2	0.01000000	-1456.198486	1355.430298	-46.702530	-1505.225098	1388.307495	-434.823486	-1538.253296	1442.427734	-236.979294	-1383.157715	1340.395142	-242.929703	-1493.362183	1021.597900	28.040220	-1503.217773	1061.415283	-549.714722	-1404.188110	791.014740	-21.926205	-1397.612488	837.985321	-544.497406	-1421.265747	930.718811	-108.149284	-1459.909668	940.508667	-412.610260	-1627.192505	952.607361	-185.930298	-1637.704346	949.093994	-283.715485	-1632.448425	950.850677	-234.822891	-1631.154663	1163.786377	-235.462433	-1323.472168	1152.319214	-256.543182	-1421.614380	534.172729	-53.530888	-1419.139771	454.699829	-126.353302	-1416.052734	292.413757	-91.983498	-1438.272827	72.943909	-174.404144	-1495.158081	59.533474	-238.913391	-1311.853882	51.514454	-208.073624	-1382.541626	587.126404	-467.500458	-1400.382568	460.517029	-415.105865	-1496.776245	356.962311	-455.360565	-1655.694946	206.719025	-369.517120	-1705.634888	218.494293	-306.064240	-1569.692871	87.513496	-353.713409
3	0.02000000	-1449.326294	1355.346558	-46.520039	-1497.060669	1388.112183	-434.787109	-1530.754761	1442.739380	-236.940231	-1376.010254	1340.244263	-242.328217	-1477.851807	1021.281555	29.140537	-1501.139404	1060.841675	-548.014771	-1380.937134	794.365051	-22.897223	-1402.098999	834.392303	-543.222656	-1415.803223	930.860352	-107.088486	-1452.863037	940.823608	-411.799438	-1621.054077	952.922913	-185.685837	-1631.063477	949.328430	-283.318726	-1626.058777	951.125671	-234.502281	-1624.309937	1164.318481	-235.187912	-1319.315796	1151.385254	-256.595032	-1417.076782	533.994812	-53.249523	-1416.037720	454.508789	-126.272102	-1413.795044	292.117615	-92.283249	-1438.955933	72.768623	-174.563644	-1495.134766	59.693035	-239.026764	-1311.717407	51.371292	-208.467758	-1368.882324	589.694702	-466.564423	-1383.489380	463.097351	-414.377197	-1477.125854	357.558319	-455.584229	-1633.895752	204.078842	-371.263824	-1685.009521	213.717941	-308.031036	-1543.943237	88.145164	-355.648163
4	0.03000000	-1442.538086	1355.471802	-46.412285	-1488.857910	1387.962402	-434.825562	-1523.293579	1443.082275	-237.063461	-1368.874634	1340.124878	-241.833130	-1462.456177	1021.492310	30.398212	-1499.007324	1060.391113	-546.252686	-1357.787659	798.601471	-23.681031	-1406.696167	831.083618	-541.781189	-1410.365845	931.093689	-106.055557	-1445.776489	941.134277	-410.969421	-1614.964111	953.272583	-185.490585	-1624.448608	949.604858	-283.006958	-1619.706360	951.438721	-234.248772	-1617.498535	1164.887939	-234.967789	-1315.161255	1150.502808	-256.694641	-1412.892212	533.851013	-52.945766	-1413.231079	454.341705	-126.162773	-1411.838745	291.852295	-92.498161	-1439.754517	72.586403	-174.690735	-1495.156372	59.841385	-239.112122	-1311.643433	51.289818	-208.767151	-1355.313110	592.359192	-465.388885	-1366.889893	465.695374	-413.441040	-1457.052246	357.698669	-455.717438	-1611.184814	200.372086	-373.113617	-1663.453979	207.777542	-310.179688	-1517.101440	88.001152	-357.419800
5	0.04000000	-1435.819092	1355.804565	-46.374382	-1480.656250	1387.864868	-434.922241	-1515.889160	1443.437988	-237.320190	-1361.747559	1340.042969	-241.440826	-1447.232056	1022.220276	31.820557	-1496.827393	1060.072998	-544.442688	-1334.819763	803.708862	-24.266432	-1411.354004	828.092010	-540.183853	-1404.905884	931.401917	-105.064102	-1438.643921	941.424988	-410.134186	-1608.900879	953.650391	-185.344681	-1617.840210	949.911743	-282.779266	-1613.370544	951.781067	-234.061974	-1610.708130	1165.475952	-234.810226	-1310.743286	1149.732178	-256.763672	-1409.076538	533.747620	-52.607216	-1410.713257	454.200531	-126.018143	-1410.169678	291.617676	-92.620316	-1440.588379	72.409317	-174.785141	-1495.204468	59.971928	-239.176086	-1311.629150	51.257732	-208.969254	-1341.861450	595.091187	-464.003632	-1350.648682	468.274078	-412.330994	-1436.673218	357.458008	-455.764832	-1587.618042	195.729660	-375.016815	-1640.974854	200.811111	-312.443512	-1489.293213	87.202652	-359.026520
6	0.05000000	-1429.151978	1356.330078	-46.402649	-1472.491699	1387.818359	-435.066132	-1508.550171	1443.790039	-237.681290	-1354.626587	1340.000854	-241.147781	-1432.226807	1023.436646	33.407673	-1494.608643	1059.886475	-542.602600	-1312.114685	809.644714	-24.646010	-1416.019531	825.437714	-538.441986	-1399.390015	931.765442	-104.128929	-1431.464966	941.682129	-409.309723	-1602.843018	954.048523	-185.248047	-1611.221191	950.238159	-282.629211	-1607.032104	952.143341	-233.938629	-1603.926514	1166.062988	-234.724228	-1305.846191	1149.118530	-256.738373	-1405.630493	533.685974	-52.227276	-1408.469116	454.087158	-125.835289	-1408.765015	291.414490	-92.649796	-1441.381714	72.248619	-174.849075	-1495.258423	60.078018	-239.229675	-1311.668457	51.261856	-209.076706	-1328.581665	597.856934	-462.449371	-1334.838013	470.799072	-411.088409	-1416.146729	356.929138	-455.735718	-1563.252197	190.299225	-376.915344	-1617.581055	192.963287	-314.742279	-1460.629517	85.905060	-360.479980
